<?xml version="1.0" encoding="utf-8"?>
<!-- Generator: Adobe Illustrator 16.0.0, SVG Export Plug-In . SVG Version: 6.00 Build 0)  -->
<!DOCTYPE svg PUBLIC "-//W3C//DTD SVG 1.1//EN" "http://www.w3.org/Graphics/SVG/1.1/DTD/svg11.dtd">
<svg version="1.1" id="Layer_1" xmlns="http://www.w3.org/2000/svg" xmlns:xlink="http://www.w3.org/1999/xlink" x="0px" y="0px"
	 width="150px" height="150px" viewBox="0 0 150 150" enable-background="new 0 0 150 150" xml:space="preserve">
<g>
	<path fill="#C2C2C2" d="M107.788,59.243c0.692,23.809-16.815,34.062-30.576,34.286c-17.934,0.297-29.518-12.477-31.433-35.083
		c-3.168-0.485-6.434-0.855-9.645-1.499C19.544,53.628,7.588,34.919,12.56,20.149C19.062,0.835,43.116-4.596,58.689,9.637
		c5.482,5.011,8.854,11.225,10.686,18.213c0.896,3.418,2.294,4.812,5.777,4.236c1.458-0.24,3.009-0.176,4.485,0.015
		c2.706,0.35,3.676-0.823,4.368-3.407c2.289-8.525,6.377-16,13.815-21.249c14.121-9.963,32.541-6.674,40.959,7.339
		c7.672,12.77,1.478,32.003-13.112,38.992C120.262,56.367,114.096,57.371,107.788,59.243z M49.695,64.63
		c0.675,10.3,5.973,17.388,14.754,21.664c10.079,4.905,20.103,4.043,29.178-2.664c6.35-4.692,10.264-10.913,10.066-19
		C85.527,64.63,67.937,64.63,49.695,64.63z M91.811,38.172c-2.832,0.531-6.113,1.11-6.172,5.641
		c-0.074,5.944,5.875,12.425,11.484,12.191c4.576-0.191,5.586-3.5,5.604-7.272C102.759,43.161,97.812,38.211,91.811,38.172z
		 M67.903,44.713c0.231-5.084-2.807-6.287-6.375-6.479c-5.347-0.289-10.601,4.984-10.688,10.409
		c-0.069,4.349,2.253,7.35,5.713,7.382C62.054,56.077,67.852,50.005,67.903,44.713z"/>
	<path fill="#C2C2C2" d="M55.607,110.798c8.375,4.125,16.562,8.709,25.179,12.244c8.124,3.332,16.735,5.461,25.05,8.356
		c1.693,0.591,3.02,2.252,4.51,3.418c-0.342,0.621-0.684,1.24-1.022,1.861c-4.261-0.938-8.533-1.816-12.778-2.82
		c-34.66-8.186-62.457-27.147-84.738-54.5C6.15,72.418,2.144,64.421,0.331,54.146c30.217,37.036,65.928,63.2,113.026,72.024
		c-3.129,4.129-6.938,3.393-10.18,2.145c-14.252-5.485-28.381-11.291-42.541-17.02c-1.454-0.589-2.804-1.436-4.203-2.16
		C56.16,109.689,55.884,110.244,55.607,110.798z"/>
	<path fill="#C2C2C2" d="M90.575,116.296c8.295-6.021,16.59-12.043,24.886-18.063c-0.295-0.433-0.59-0.863-0.885-1.295
		c-4.495,3.147-8.917,6.412-13.51,9.418c-4.442,2.91-8.996,5.668-13.646,8.237c-1.192,0.658-2.921,0.354-4.622-0.254
		c26.275-15.858,48.266-35.935,66.869-60.935c-0.152,1.677-0.064,2.826-0.383,3.849c-3.432,11.058-8.283,21.521-16.661,29.593
		c-10.138,9.769-20.829,18.99-31.688,27.953c-2.504,2.064-6.676,2.111-10.078,3.09C90.764,117.357,90.669,116.827,90.575,116.296z"
		/>
	<path fill="#C2C2C2" d="M58.929,144.098c-6.641,4.784-13.082,3.495-16.814-2.521c-2.304-3.711-3.548-8.101-5.119-12.238
		c-1.416-3.733-2.628-7.545-4.075-11.739c3.647-3.238,4.714-2.974,7.424,2c2.183,4.004,4.945,7.696,7.055,11.735
		c0.714,1.364,0.33,3.367,0.253,5.07c-0.241,5.384,1.137,6.534,6.52,6.106C55.706,142.395,57.341,143.535,58.929,144.098z"/>
	<path fill="#C2C2C2" d="M99.616,141.886c10.629,2.941,13.86-0.19,12.018-8.877c-0.254-1.2,0.896-2.946,1.82-4.104
		c2.387-2.985,5.532-5.481,7.412-8.731c2.676-4.625,5.45-5.31,9.679-1.287c-5.679,4.16-9.634,9.519-11.572,16.346
		c-0.722,2.531-1.646,5.027-2.707,7.438c-2.252,5.105-10.051,7.45-14.748,4.275C100.564,146.307,100.495,144.365,99.616,141.886z"/>
	<path fill="#C2C2C2" d="M126.596,137.654c-1.753-1.293-3.505-2.583-5.256-3.874c1.85-1.291,3.571-2.851,5.585-3.781
		c1.433-0.664,3.312-0.845,4.884-0.582c1.493,0.25,3.895,1.17,4.059,2.112c0.402,2.318-0.36,4.658-3.635,4.714
		c-1.646,0.026-3.289,0.391-4.935,0.603C127.062,137.113,126.829,137.384,126.596,137.654z"/>
	<path fill="#C2C2C2" d="M72.834,128.941c-7.534,2.652-14.243,5.019-20.952,7.379C55.149,128.843,66.366,125.248,72.834,128.941z"/>
	<path fill="#C2C2C2" d="M23.889,139.059c0.554-6.552,3.936-8.504,8.837-7.854c1.483,0.196,3.445,1.749,3.958,3.136
		c0.782,2.11-0.369,3.646-3.1,3.719C30.506,138.139,27.438,138.671,23.889,139.059z"/>
	<path fill="#C2C2C2" d="M14.936,139.895c2.185,0.246,4.37,0.491,6.929,0.778c-2.667,3.271-5.778,2.599-8.206,0.771
		c-1.245-0.938-2.23-4.611-1.589-5.226c2.125-2.028,5.042-3.229,7.655-4.748c0.673,1.183,1.869,2.367,1.861,3.544
		c-0.007,1.038-1.153,2.543-2.167,2.979c-1.208,0.521-2.813,0.122-4.246,0.122C15.093,138.71,15.014,139.302,14.936,139.895z"/>
	<path fill="#C2C2C2" d="M138.338,127.376c2.342,1.09,5.411,1.644,6.749,3.469c0.813,1.107-0.696,4.392-1.846,6.283
		c-0.599,0.986-3.449,1.879-3.914,1.422c-1.076-1.061-1.67-2.938-1.804-4.534c-0.133-1.604,0.529-3.274,0.847-4.916
		C138.357,128.523,138.35,127.95,138.338,127.376z"/>
	<path fill="#C2C2C2" d="M49.25,127.201c4.863-0.926,8.934-5.731,15.571-2.421C59.144,127.089,54.808,130.453,49.25,127.201z"/>
	<path fill="none" d="M49.695,64.63c18.243,0,35.833,0,54,0c0.193,8.086-3.721,14.306-10.067,19
		c-9.075,6.707-19.099,7.569-29.178,2.664C55.667,82.02,50.37,74.93,49.695,64.63z"/>
	<path fill="none" d="M91.811,38.172c6.006,0.039,10.947,4.988,10.92,10.56c-0.021,3.772-1.028,7.081-5.604,7.272
		c-5.61,0.233-11.562-6.247-11.485-12.191C85.693,39.283,88.979,38.704,91.811,38.172z"/>
	<path fill="none" d="M67.903,44.713c-0.051,5.292-5.849,11.363-11.35,11.312c-3.46-0.032-5.782-3.033-5.713-7.382
		c0.087-5.425,5.341-10.698,10.688-10.409C65.096,38.426,68.134,39.629,67.903,44.713z"/>
</g>
</svg>
